<svg width="48" height="49" viewBox="0 0 48 49" fill="none" xmlns="http://www.w3.org/2000/svg">
<g clip-path="url(#clip0_1_13)">
<path d="M40.1951 0.5H7.80488C3.49436 0.5 0 3.99436 0 8.30488V40.6951C0 45.0056 3.49436 48.5 7.80488 48.5H40.1951C44.5056 48.5 48 45.0056 48 40.6951V8.30488C48 3.99436 44.5056 0.5 40.1951 0.5Z" fill="#141414"/>
<path d="M31.6098 18.3536C28.6439 11.7194 24.3903 10.9714 22.6342 11.4267C27.7073 1.2804 33.9512 7.13406 37.561 9.96333C41.1707 12.7926 36.0976 18.3536 36.0976 20.4024C36.0976 22.0414 38.504 25.6381 39.7073 27.2316C38.2439 27.0365 34.5756 24.9877 31.6098 18.3536Z" fill="#F91616"/>
<path d="M7.18613 29.1828C9.29345 27.778 12.5203 23.5893 14.0488 22.1584C14.3629 23.4593 15.8034 27.1731 17.6252 27.7194C15.1276 29.3584 9.17073 31.9145 5.13735 32.695C4.94223 32.1097 5.07881 30.5877 7.18613 29.1828Z" fill="#F98516"/>
<path d="M18.8292 48.5C25.0731 42.2561 29.9512 28.2073 30.7317 21.9634C27.057 21.9634 19.2195 23.5439 19.6097 28.6951C20 33.8463 11.6423 44.0447 7.41461 48.5H18.8292Z" fill="white"/>
<path d="M22.0488 30.1586C26.8981 30.1586 30.8293 26.2275 30.8293 21.3781C30.8293 16.5288 26.8981 12.5977 22.0488 12.5977C17.1995 12.5977 13.2683 16.5288 13.2683 21.3781C13.2683 26.2275 17.1995 30.1586 22.0488 30.1586Z" fill="white"/>
<path d="M23.1319 18.2561C21.0123 20.1447 18.1771 20.9845 17.0732 21.3781C17.6987 22.2723 18.9861 23.9931 21.4634 22.8415C23.7538 21.7769 23.5366 19.1861 23.1319 18.2561Z" fill="#141414"/>
<path d="M5.5243 5.1424C5.58258 5.12575 5.63669 5.11326 5.68664 5.10493C5.73659 5.08829 5.78654 5.0758 5.83649 5.06747C5.89477 5.05083 5.96553 5.04249 6.04878 5.04249C6.14036 5.03416 6.22361 5.03834 6.29854 5.05498C6.3818 5.06331 6.45673 5.08829 6.52332 5.12991C6.59825 5.16322 6.65236 5.21732 6.68566 5.29225C6.71897 5.37551 6.73977 5.47541 6.7481 5.59196C6.76475 5.70019 6.77308 5.81258 6.77308 5.92913C6.77308 6.04567 6.76892 6.16224 6.76059 6.27879C6.76059 6.38702 6.76059 6.48692 6.76059 6.57849V12.9598C6.76059 13.0513 6.76059 13.1471 6.76059 13.247C6.76892 13.3386 6.76892 13.4343 6.76059 13.5342C6.75226 13.6341 6.72728 13.7299 6.68566 13.8214C6.64404 13.9047 6.5816 13.9754 6.49835 14.0337C6.3818 14.1253 6.22361 14.1711 6.02381 14.1711C5.83234 14.1794 5.66582 14.1586 5.5243 14.1086C5.37444 14.0587 5.28287 13.9629 5.24956 13.8214C5.22459 13.6799 5.2121 13.5384 5.2121 13.3968C5.15382 12.2979 5.12469 11.224 5.12469 10.175C5.13302 9.11767 5.13717 8.03124 5.13717 6.91567C5.12053 6.95728 5.06225 6.99475 4.96235 7.02806C4.87077 7.06136 4.76254 7.09049 4.63766 7.11547C4.52112 7.14045 4.40873 7.16126 4.30049 7.17791C4.19226 7.19455 4.12151 7.20288 4.0882 7.20288C3.87175 7.22786 3.67195 7.20704 3.48878 7.14045C3.31395 7.06552 3.21405 6.89902 3.18908 6.64093C3.15577 6.37453 3.21405 6.1664 3.36391 6.01654C3.52209 5.86669 3.7219 5.7543 3.96332 5.67937C4.22972 5.5878 4.48781 5.49621 4.73756 5.40464C4.99565 5.30474 5.2579 5.21732 5.5243 5.1424ZM9.34722 5.42962C9.42215 5.35469 9.5179 5.30889 9.63444 5.29225C9.75932 5.26727 9.90502 5.25479 10.0715 5.25479H13.156C13.2642 5.25479 13.3849 5.25479 13.5182 5.25479C13.6597 5.24646 13.7929 5.25479 13.9178 5.27976C14.0426 5.30474 14.1509 5.35053 14.2424 5.41713C14.3423 5.47541 14.4131 5.57114 14.4547 5.70435C14.4797 5.78761 14.488 5.88333 14.4797 5.99157C14.4797 6.0998 14.4589 6.20386 14.4173 6.30376C14.384 6.39533 14.3299 6.47859 14.2549 6.55352C14.18 6.62011 14.0884 6.65758 13.9802 6.66591C13.7637 6.70753 13.539 6.72002 13.3059 6.70337C13.0727 6.6784 12.848 6.66591 12.6315 6.66591C12.3901 6.66591 12.1778 6.67424 11.9946 6.69088C11.8115 6.70753 11.6034 6.71586 11.3702 6.71586C11.2787 6.71586 11.1621 6.7117 11.0206 6.70337C10.8791 6.69504 10.7708 6.70337 10.6959 6.72835C10.6293 6.74499 10.5752 6.7783 10.5336 6.82825C10.5003 6.8782 10.4753 6.93648 10.4586 7.00308C10.442 7.06136 10.4337 7.1238 10.4337 7.1904C10.4337 7.25699 10.4337 7.31527 10.4337 7.36523C10.4337 7.50675 10.4253 7.65245 10.4087 7.8023C10.4004 7.94382 10.392 8.08536 10.3837 8.22688C10.3671 8.41836 10.392 8.52659 10.4586 8.55157C10.5336 8.56821 10.6584 8.55157 10.8333 8.50162C11.133 8.42669 11.441 8.38923 11.7574 8.38923C12.182 8.38923 12.5774 8.44751 12.9437 8.56406C13.31 8.67229 13.6264 8.84294 13.8928 9.07606C14.1675 9.30084 14.3798 9.58806 14.5297 9.93771C14.6878 10.279 14.7669 10.6787 14.7669 11.1365C14.7669 11.2198 14.7628 11.2989 14.7544 11.3738C14.7544 11.4487 14.7461 11.5237 14.7295 11.5986C14.6629 12.1231 14.4672 12.5851 14.1425 12.9847C13.8179 13.3843 13.4058 13.6716 12.9062 13.8464C12.3152 14.0712 11.7033 14.1752 11.0705 14.1586C10.4378 14.1336 9.85507 13.9505 9.32225 13.6091C9.17239 13.5176 9.03503 13.4093 8.91015 13.2844C8.78527 13.1512 8.6937 13.0014 8.63542 12.8349C8.56882 12.6601 8.548 12.4811 8.57298 12.2979C8.60629 12.1064 8.71868 11.9649 8.91015 11.8733C9.05167 11.8067 9.18073 11.7859 9.29727 11.8109C9.42215 11.8275 9.5387 11.8692 9.64693 11.9358C9.75516 11.994 9.85922 12.069 9.95913 12.1605C10.0674 12.2438 10.1756 12.3146 10.2838 12.3728C10.4753 12.4644 10.6751 12.5435 10.8832 12.6101C11.0914 12.6684 11.312 12.6975 11.5451 12.6975C12.0612 12.6975 12.4733 12.5602 12.7814 12.2854C13.0977 12.0107 13.2559 11.6402 13.2559 11.174C13.2559 10.7244 13.0936 10.3748 12.7689 10.125C12.4442 9.86694 12.0071 9.73791 11.4577 9.73791C11.3161 9.73791 11.1746 9.74624 11.0331 9.76288C10.8916 9.77953 10.75 9.80868 10.6085 9.8503C10.4753 9.88361 10.3421 9.92107 10.2089 9.96269C10.084 10.0043 9.95913 10.0335 9.83425 10.0501C9.70937 10.0584 9.58449 10.0459 9.45961 10.0126C9.34307 9.97102 9.23068 9.88361 9.12244 9.7504C9.01421 9.63385 8.9601 9.49231 8.9601 9.32581C8.9601 9.15931 8.96843 9.00528 8.98508 8.86376C9.00172 8.62234 9.01421 8.38089 9.02254 8.13947C9.03087 7.89805 9.04336 7.6566 9.06 7.41518C9.07665 7.17375 9.08914 6.93648 9.09747 6.70337C9.11411 6.46195 9.13077 6.2205 9.14742 5.97908C9.15575 5.83756 9.17655 5.72517 9.20986 5.64191C9.24316 5.55865 9.28894 5.4879 9.34722 5.42962Z" fill="white"/>
<path d="M36.6611 35.753C36.7526 35.8613 36.7985 35.9737 36.7985 36.0902C36.7985 36.1401 36.7944 36.1942 36.786 36.2525C36.786 36.3025 36.7819 36.3483 36.7735 36.3899C36.7485 36.4814 36.6945 36.5688 36.6111 36.6521C36.5446 36.7021 36.4529 36.7395 36.3364 36.7645C36.2781 36.7811 36.2199 36.7936 36.1616 36.802C36.1032 36.8104 36.0408 36.8228 35.9743 36.8394C35.9159 36.8478 35.8578 36.8519 35.7994 36.8519C35.7411 36.8519 35.6787 36.8519 35.6121 36.8519H34.9752C34.8254 36.8603 34.6755 36.8644 34.5257 36.8644C34.3842 36.8644 34.2426 36.8644 34.1011 36.8644C34.1095 37.1225 34.1136 37.4014 34.1136 37.7011C34.1136 37.9924 34.1095 38.3339 34.1011 38.7251C34.1011 39.1163 34.097 39.5702 34.0886 40.0863C34.0886 40.6024 34.0886 41.2018 34.0886 41.8845V42.8336C34.0886 42.9169 34.0927 42.9793 34.1011 43.0209C34.1011 43.0543 34.1011 43.0874 34.1011 43.1208C34.1011 43.1458 34.097 43.1791 34.0886 43.2207C34.072 43.2956 34.0595 43.383 34.0511 43.4829C34.0511 43.5245 34.047 43.5663 34.0387 43.6078C34.0303 43.6412 34.0178 43.6786 34.0012 43.7202C33.9678 43.7536 33.9512 43.7786 33.9512 43.7951L33.9138 43.8701C33.8722 43.9534 33.793 44.0324 33.6765 44.1073C33.4933 44.1988 33.2894 44.2197 33.0646 44.1698C32.9231 44.1532 32.8148 44.1157 32.7399 44.0574C32.665 43.9825 32.6109 43.9075 32.5776 43.8326C32.5276 43.7411 32.4986 43.6537 32.4902 43.5704C32.4652 43.4954 32.4527 43.4164 32.4527 43.3331V36.9144C32.4028 36.9144 32.2987 36.9144 32.1405 36.9144C31.9823 36.9144 31.8117 36.9144 31.6285 36.9144C31.4537 36.906 31.2872 36.8978 31.129 36.8894C30.9707 36.881 30.8627 36.8728 30.8043 36.8644C30.7544 36.856 30.6753 36.8435 30.567 36.8269C30.4671 36.8104 30.3838 36.7936 30.3173 36.777C30.1425 36.727 30.0051 36.648 29.9052 36.5397C29.8137 36.4314 29.7678 36.3108 29.7678 36.1776C29.7678 36.1276 29.7678 36.0777 29.7678 36.0277C29.7678 35.9778 29.7762 35.9319 29.7928 35.8904C29.8178 35.7905 29.8843 35.7071 29.9926 35.6406C30.026 35.6156 30.0759 35.5865 30.1425 35.5532C30.2174 35.5116 30.2882 35.4824 30.3547 35.4658C30.4547 35.4324 30.5795 35.4074 30.7294 35.3908C30.7959 35.3825 30.8627 35.3784 30.9292 35.3784C30.9957 35.3784 31.0666 35.3784 31.1415 35.3784C31.4328 35.3784 31.7075 35.3784 31.9657 35.3784C32.232 35.3784 32.511 35.3743 32.8024 35.3659C33.2853 35.3575 33.7639 35.3575 34.2385 35.3659C34.7214 35.3659 35.2 35.3743 35.6746 35.3908C35.7828 35.3992 35.8868 35.4117 35.9868 35.4283C36.0867 35.4449 36.1866 35.4742 36.2865 35.5157C36.3614 35.5407 36.4322 35.5741 36.4987 35.6156C36.5653 35.649 36.6195 35.6946 36.6611 35.753ZM44.3858 35.9778C44.3942 36.0361 44.3983 36.0902 44.3983 36.1401C44.3983 36.1901 44.3983 36.24 44.3983 36.29V36.802L44.3233 43.2831V43.408C44.3233 43.458 44.3108 43.5329 44.2859 43.6328C44.2775 43.6744 44.265 43.7202 44.2484 43.7702C44.2318 43.8117 44.215 43.8576 44.1985 43.9075C44.1569 44.0074 44.0986 44.0824 44.0236 44.1323C43.9571 44.1988 43.8488 44.2447 43.6989 44.2697C43.4658 44.3196 43.2535 44.2987 43.0621 44.2072C42.9538 44.1407 42.8788 44.0574 42.8373 43.9575C42.8207 43.9409 42.8039 43.9159 42.7873 43.8826C42.7873 43.866 42.7789 43.841 42.7624 43.8076C42.7458 43.7661 42.7333 43.7243 42.7249 43.6827C42.7165 43.6328 42.7083 43.5828 42.6999 43.5329C42.6999 43.4913 42.6958 43.4496 42.6874 43.408C42.6874 43.3665 42.6833 43.3247 42.6749 43.2831C42.6584 43.2416 42.65 43.2082 42.65 43.1832C42.65 43.1499 42.65 43.1124 42.65 43.0708C42.6666 43.0375 42.6749 42.975 42.6749 42.8835L42.6874 41.897L42.6999 40.3235H42.0256L39.4906 40.336L39.4656 43.2831V43.408C39.4656 43.458 39.4531 43.5329 39.4281 43.6328C39.4197 43.6744 39.4072 43.7202 39.3907 43.7702C39.3741 43.8117 39.3573 43.8576 39.3407 43.9075C39.2991 44.0074 39.2408 44.0824 39.1659 44.1323C39.0993 44.1988 38.991 44.2447 38.8412 44.2697C38.608 44.3196 38.3957 44.2987 38.2043 44.2072C38.121 44.1573 38.042 44.074 37.967 43.9575C37.9505 43.9241 37.9421 43.8991 37.9421 43.8826L37.9046 43.8076C37.888 43.7661 37.8755 43.7243 37.8671 43.6827C37.8587 43.6328 37.8506 43.5828 37.8422 43.5329C37.8422 43.4913 37.8381 43.4496 37.8297 43.408C37.8213 43.3665 37.8131 43.3247 37.8047 43.2831C37.7963 43.2166 37.7963 43.1458 37.8047 43.0708V42.8835L37.8172 41.897L37.8422 40.0613C37.8506 39.7949 37.8547 39.5202 37.8547 39.2371C37.8547 38.954 37.8547 38.6626 37.8547 38.3629C37.8463 38.0632 37.8422 37.7969 37.8422 37.5637C37.8506 37.3305 37.863 37.0683 37.8796 36.777V36.727C37.888 36.6437 37.8921 36.5606 37.8921 36.4773C37.8921 36.3858 37.8962 36.2941 37.9046 36.2026C37.913 36.1192 37.9255 36.0402 37.9421 35.9653C37.967 35.882 38.0004 35.7988 38.042 35.7155C38.0669 35.649 38.1003 35.5947 38.1419 35.5532C38.1834 35.5032 38.2334 35.4574 38.2917 35.4158C38.425 35.3493 38.5581 35.3159 38.6913 35.3159C38.7579 35.3159 38.8162 35.32 38.8662 35.3284C38.9161 35.3284 38.9661 35.3325 39.016 35.3409C39.1159 35.3493 39.2117 35.3992 39.3032 35.4907C39.3698 35.5491 39.4156 35.6156 39.4406 35.6906C39.4822 35.7988 39.5071 35.8945 39.5155 35.9778C39.5239 36.0361 39.528 36.0902 39.528 36.1401C39.528 36.1901 39.528 36.24 39.528 36.29V36.802L39.503 38.8625C39.5696 38.8625 39.6445 38.8625 39.7278 38.8625C39.8193 38.8625 39.9235 38.8584 40.04 38.85C40.473 38.85 40.9017 38.8541 41.3263 38.8625C41.7592 38.8708 42.2129 38.8749 42.6874 38.8749H42.6999C42.6999 38.5003 42.6999 38.1423 42.6999 37.801C42.7083 37.4597 42.7208 37.1017 42.7374 36.727C42.7374 36.6437 42.7374 36.5606 42.7374 36.4773C42.7458 36.3858 42.754 36.2941 42.7624 36.2026C42.7707 36.1192 42.7832 36.0402 42.7998 35.9653C42.8248 35.882 42.8582 35.7988 42.8997 35.7155C42.9163 35.649 42.9456 35.5947 42.9871 35.5532C43.0371 35.5032 43.0954 35.4574 43.162 35.4158C43.2785 35.3493 43.4076 35.3159 43.5491 35.3159C43.6156 35.3159 43.674 35.32 43.7239 35.3284C43.7823 35.3284 43.8322 35.3325 43.8738 35.3409C43.9903 35.3575 44.0861 35.4074 44.161 35.4907C44.2275 35.5323 44.2734 35.599 44.2984 35.6906C44.3149 35.7405 44.3274 35.7905 44.3358 35.8404C44.3524 35.882 44.3692 35.9278 44.3858 35.9778Z" fill="white"/>
</g>
<defs>
<clipPath id="clip0_1_13">
<rect width="48" height="48" fill="white" transform="translate(0 0.5)"/>
</clipPath>
</defs>
</svg>
