<svg width="48" height="48" viewBox="0 0 48 48" fill="none" xmlns="http://www.w3.org/2000/svg">
<path fill-rule="evenodd" clip-rule="evenodd" d="M23.0885 12.1435C20.1737 13.0475 17.1029 14 14 14C11.9456 14 10.1089 13.7817 8.55829 13.4838C7.50263 13.2809 6.79934 13.1467 6.29277 13.0797C6.19295 13.0665 6.11032 13.0573 6.04241 13.051C6.03806 13.095 6.03369 13.1468 6.02968 13.2072C6.00108 13.6377 6.00001 14.2397 6.00001 15.1777L6.00001 36.6745C6.00001 36.7489 6.00009 36.7965 6.00061 36.8337C6.00504 36.8407 6.00963 36.8478 6.01434 36.8551C6.01902 36.8622 6.02368 36.8693 6.02826 36.8761C7.0708 37.3179 9.42561 38 14 38C17.6741 38 20.9233 37.0849 24.1618 36.0884C24.4105 36.0119 24.6604 35.9344 24.9115 35.8565C27.8263 34.9525 30.8971 34 34 34C36.0544 34 37.8911 34.2183 39.4417 34.5162C40.4974 34.7191 41.2007 34.8533 41.7073 34.9203C41.8071 34.9335 41.8897 34.9427 41.9576 34.949C41.962 34.905 41.9663 34.8532 41.9703 34.7928C41.9989 34.3623 42 33.7603 42 32.8223V11.3255C42 11.2511 41.9999 11.2035 41.9994 11.1663C41.995 11.1593 41.9904 11.1522 41.9857 11.1449C41.981 11.1378 41.9763 11.1307 41.9718 11.1239C40.9292 10.6821 38.5744 10 34 10C30.326 10 27.0767 10.9151 23.8382 11.9116C23.5895 11.9881 23.3396 12.0656 23.0885 12.1435ZM42.1945 34.9606C42.1989 34.9602 42.2015 34.96 42.202 34.9601L42.1945 34.9606ZM5.80559 13.0394C5.80066 13.0399 5.79806 13.04 5.79798 13.0399L5.80559 13.0394ZM22.6618 8.08844C25.9233 7.08492 29.6741 6 34 6C39.0911 6 42.0319 6.77781 43.6714 7.501C43.6762 7.50309 43.6814 7.5054 43.6872 7.50792C43.7739 7.5459 43.9725 7.63295 44.1906 7.77608C44.413 7.92201 44.5987 8.08645 44.7616 8.24189C45.0135 8.48228 45.2241 8.78809 45.3366 8.96061C45.4491 9.13313 45.6438 9.44927 45.7621 9.77676C46.0003 10.4361 46.0001 10.9043 46 11.2986L46 32.8899C46 33.7408 46.0001 34.4782 45.9615 35.058C45.9256 35.5992 45.8445 36.356 45.4549 37.0236C45.2428 37.3871 44.9661 37.7712 44.5601 38.1066C44.1542 38.442 43.7248 38.6413 43.3278 38.781C42.5703 39.0475 41.742 38.9597 41.1831 38.8858C40.546 38.8016 39.7261 38.6441 38.7499 38.4565L38.687 38.4444C37.3544 38.1883 35.7717 38 34 38C31.5309 38 29.0283 38.7726 25.9473 39.7237C25.7467 39.7856 25.5438 39.8483 25.3382 39.9116C22.0767 40.9151 18.326 42 14 42C8.90893 42 5.96809 41.2222 4.3286 40.499C4.32387 40.4969 4.31861 40.4946 4.31286 40.4921C4.22618 40.4541 4.0275 40.367 3.80938 40.2239C3.587 40.078 3.40128 39.9135 3.23841 39.7581C2.98652 39.5177 2.77588 39.2119 2.66342 39.0394C2.55096 38.8669 2.35618 38.5507 2.23789 38.2232C1.99973 37.5639 1.99988 37.0957 2.00001 36.7014L2.00001 15.1101C1.99998 14.2592 1.99996 13.5218 2.03848 12.942C2.07444 12.4008 2.15553 11.644 2.54512 10.9764C2.75722 10.6129 3.03392 10.2288 3.43989 9.89337C3.84587 9.55798 4.27526 9.35872 4.67225 9.21902C5.42971 8.95248 6.258 9.0403 6.81696 9.11419C7.45408 9.19841 8.27393 9.35595 9.25012 9.54353L9.31305 9.55562C10.6456 9.81166 12.2283 10 14 10C16.4692 10 18.9717 9.22744 22.0527 8.27627C22.2533 8.21436 22.4563 8.1517 22.6618 8.08844ZM36 16C37.1046 16 38 16.8954 38 18V26C38 27.1046 37.1046 28 36 28C34.8954 28 34 27.1046 34 26V18C34 16.8954 34.8954 16 36 16ZM24 21C22.3432 21 21 22.3431 21 24C21 25.6568 22.3432 27 24 27C25.6569 27 27 25.6568 27 24C27 22.3431 25.6569 21 24 21ZM17 24C17 20.134 20.134 17 24 17C27.866 17 31 20.134 31 24C31 27.866 27.866 31 24 31C20.134 31 17 27.866 17 24ZM12 20C13.1046 20 14 20.8954 14 22V30C14 31.1046 13.1046 32 12 32C10.8954 32 10 31.1046 10 30V22C10 20.8954 10.8954 20 12 20Z" fill="white"/>
</svg>
