<svg width="48" height="48" viewBox="0 0 48 48" fill="none" xmlns="http://www.w3.org/2000/svg">
<path fill-rule="evenodd" clip-rule="evenodd" d="M14.7092 1.99952C14.7707 1.99977 14.8307 2.00001 14.8891 2.00001H33.1113C33.1697 2.00001 33.2297 1.99977 33.2911 1.99952C33.9173 1.99699 34.6886 1.99387 35.3683 2.24124C36.4793 2.64563 37.3546 3.52086 37.759 4.63193C37.9188 5.07097 37.974 5.54829 37.9925 6.00001L41.0531 6.00001C41.4732 5.99996 41.8825 5.99992 42.2306 6.02368C42.6114 6.04966 43.0628 6.1106 43.5309 6.30449C44.511 6.71047 45.2897 7.48916 45.6957 8.46928C45.8896 8.93736 45.9505 9.38881 45.9765 9.76956C46.0003 10.1177 46.0002 10.527 46.0002 10.9471V12C46.0002 12.0931 46.0002 12.1848 46.0003 12.2752C46.0012 13.8659 46.0018 15.0473 45.7276 16.0706C44.9879 18.8313 42.8315 20.9877 40.0707 21.7274C39.3096 21.9314 38.461 21.9833 37.4216 21.9961C35.8858 27.1618 31.4491 31.0788 26.0002 31.8582V34H26.8891C31.921 34 36.0002 38.0792 36.0002 43.1111C36.0002 44.7066 34.7068 46 33.1113 46H14.8891C13.2936 46 12.0002 44.7066 12.0002 43.1111C12.0002 38.0792 16.0794 34 21.1113 34H22.0002V31.8582C16.5513 31.0788 12.1145 27.1618 10.5788 21.9961C9.53934 21.9833 8.69078 21.9314 7.92964 21.7274C5.1689 20.9877 3.01252 18.8313 2.27279 16.0706C1.99859 15.0473 1.99923 13.8659 2.00009 12.2752C2.00014 12.1848 2.00019 12.0931 2.00019 12V11C2.00019 10.9823 2.00019 10.9647 2.00019 10.9471C2.00015 10.527 2.00011 10.1177 2.02386 9.76956C2.04984 9.38881 2.11079 8.93736 2.30467 8.46928C2.71065 7.48916 3.48935 6.71047 4.46946 6.30449C4.93754 6.1106 5.389 6.04966 5.76974 6.02368C6.11791 5.99992 6.52715 5.99996 6.94724 6.00001C6.96488 6.00001 6.98253 6.00001 7.00019 6.00001H10.0079C10.0264 5.54829 10.0816 5.07097 10.2414 4.63193C10.6458 3.52086 11.521 2.64563 12.6321 2.24124C13.3118 1.99387 14.0831 1.99699 14.7092 1.99952ZM10.0002 10H7.00019C6.50689 10 6.23707 10.0011 6.04202 10.0144C6.03295 10.015 6.02444 10.0156 6.01646 10.0163C6.01583 10.0243 6.0152 10.0328 6.01458 10.0418C6.00128 10.2369 6.00019 10.5067 6.00019 11V12C6.00019 13.9887 6.01737 14.5907 6.13649 15.0353C6.50636 16.4157 7.58455 17.4938 8.96492 17.8637C9.2025 17.9274 9.48505 17.9619 10.0002 17.9803V10ZM14.0002 6.8889C14.0002 6.45079 14.001 6.2112 14.0116 6.03751C14.0121 6.02878 14.0127 6.02063 14.0132 6.01302C14.0208 6.01248 14.029 6.01194 14.0377 6.01141C14.2114 6.00087 14.451 6.00001 14.8891 6.00001H33.1113C33.5494 6.00001 33.789 6.00087 33.9627 6.01141C33.9714 6.01194 33.9796 6.01248 33.9872 6.01302C33.9877 6.02062 33.9883 6.02879 33.9888 6.03751C33.9993 6.2112 34.0002 6.45079 34.0002 6.8889V18C34.0002 23.5229 29.523 28 24.0002 28C18.4773 28 14.0002 23.5229 14.0002 18V6.8889ZM38.0002 10V17.9803C38.5153 17.9619 38.7979 17.9274 39.0355 17.8637C40.4158 17.4938 41.494 16.4157 41.8639 15.0353C41.983 14.5907 42.0002 13.9887 42.0002 12V11C42.0002 10.5067 41.9991 10.2369 41.9858 10.0418C41.9852 10.0328 41.9845 10.0243 41.9839 10.0163C41.9759 10.0156 41.9674 10.015 41.9584 10.0144C41.7633 10.0011 41.4935 10 41.0002 10H38.0002ZM21.1113 38C18.6701 38 16.6286 39.7115 16.1213 42H31.8791C31.3718 39.7115 29.3303 38 26.8891 38H21.1113Z" fill="white"/>
</svg>
