<svg width="48" height="48" viewBox="0 0 48 48" fill="none" xmlns="http://www.w3.org/2000/svg">
<path fill-rule="evenodd" clip-rule="evenodd" d="M10 6C7.79086 6 6 7.79086 6 10C6 12.2091 7.79086 14 10 14C12.2091 14 14 12.2091 14 10C14 7.79086 12.2091 6 10 6ZM2 10C2 5.58172 5.58172 2 10 2C14.4183 2 18 5.58172 18 10C18 14.4183 14.4183 18 10 18C5.58172 18 2 14.4183 2 10ZM30.7062 12.1301C29.1397 12.0017 26.9537 12 23.8688 12H23C21.8954 12 21 11.1046 21 10C21 8.89543 21.8954 8 23 8L23.9693 8C26.9315 7.99998 29.283 7.99997 31.0332 8.14352C31.9246 8.21663 32.7498 8.3329 33.4721 8.53744C34.1925 8.74143 34.9347 9.06725 35.5419 9.64187C37.0418 11.0611 37.7064 13.1518 37.3015 15.1766C37.1375 15.9964 36.7197 16.691 36.2494 17.2736C35.7778 17.8576 35.1713 18.4291 34.4857 19.0035C33.1397 20.1314 31.2199 21.4893 28.8015 23.1999L20.5904 29.0078C18.0718 30.7892 16.288 32.0529 15.0833 33.0624C14.4859 33.563 14.101 33.9442 13.8628 34.2392C13.6656 34.4834 13.6238 34.6018 13.6196 34.6142C13.4877 35.285 13.7076 35.9767 14.2026 36.4482C14.2133 36.4559 14.3157 36.5284 14.6177 36.6139C14.9826 36.7172 15.517 36.8062 16.2938 36.8699C17.8603 36.9983 20.0463 37 23.1312 37H25C26.1046 37 27 37.8954 27 39C27 40.1046 26.1046 41 25 41H23.0308C20.0685 41 17.7171 41 15.9668 40.8565C15.0754 40.7834 14.2502 40.6671 13.5279 40.4626C12.8076 40.2586 12.0653 39.9328 11.4581 39.3581C9.95825 37.9389 9.29357 35.8482 9.69851 33.8234C9.86246 33.0036 10.2803 32.309 10.7506 31.7264C11.2222 31.1423 11.8287 30.5709 12.5143 29.9964C13.8603 28.8686 15.7801 27.5107 18.1985 25.8001L26.4096 19.9922C28.9282 18.2108 30.712 16.9471 31.9167 15.9376C32.5141 15.437 32.899 15.0558 33.1372 14.7608C33.3343 14.5167 33.3761 14.3983 33.3804 14.3858C33.5123 13.715 33.2924 13.0233 32.7974 12.5518C32.7867 12.5441 32.6843 12.4716 32.3823 12.3861C32.0174 12.2828 31.483 12.1938 30.7062 12.1301ZM38 34C35.7909 34 34 35.7909 34 38C34 40.2091 35.7909 42 38 42C40.2091 42 42 40.2091 42 38C42 35.7909 40.2091 34 38 34ZM30 38C30 33.5817 33.5817 30 38 30C42.4183 30 46 33.5817 46 38C46 42.4183 42.4183 46 38 46C33.5817 46 30 42.4183 30 38Z" fill="white"/>
</svg>
