<svg width="32" height="32" viewBox="0 0 32 32" fill="none" xmlns="http://www.w3.org/2000/svg">
<path fill-rule="evenodd" clip-rule="evenodd" d="M15.4646 1.57994C15.819 1.50705 16.1846 1.50705 16.539 1.57994C16.9487 1.6642 17.3149 1.8693 17.606 2.03236C17.6331 2.04755 17.6596 2.06237 17.6854 2.07669L27.552 7.55817C27.5793 7.57333 27.6074 7.58881 27.6362 7.60467C27.9444 7.77441 28.3319 7.98784 28.6294 8.31074C28.8867 8.58992 29.0814 8.92081 29.2005 9.28127C29.3383 9.69821 29.3366 10.1406 29.3354 10.4924C29.3352 10.5253 29.3351 10.5574 29.3351 10.5886V21.4114C29.3351 21.4426 29.3352 21.4747 29.3354 21.5076C29.3366 21.8594 29.3383 22.3018 29.2005 22.7187C29.0814 23.0792 28.8867 23.4101 28.6294 23.6892C28.3319 24.0121 27.9444 24.2256 27.6362 24.3953C27.6074 24.4112 27.5793 24.4267 27.552 24.4418L17.6854 29.9233C17.6596 29.9376 17.6331 29.9524 17.606 29.9676C17.3149 30.1307 16.9487 30.3358 16.539 30.42C16.1846 30.4929 15.819 30.4929 15.4646 30.42C15.0549 30.3358 14.6887 30.1307 14.3976 29.9676C14.3705 29.9524 14.344 29.9376 14.3182 29.9233L4.45157 24.4418C4.42429 24.4267 4.39619 24.4112 4.36739 24.3953C4.05921 24.2256 3.67172 24.0121 3.37415 23.6892C3.11688 23.4101 2.92219 23.0792 2.80309 22.7187C2.66533 22.3018 2.66694 21.8594 2.66822 21.5076C2.66834 21.4747 2.66846 21.4426 2.66846 21.4114V10.5886C2.66846 10.5574 2.66834 10.5253 2.66822 10.4924C2.66694 10.1406 2.66533 9.69821 2.80309 9.28128C2.92219 8.92081 3.11688 8.58992 3.37415 8.31075C3.67172 7.98784 4.0592 7.77442 4.36738 7.60467C4.39618 7.58881 4.42429 7.57333 4.45156 7.55818L14.3182 2.07669C14.344 2.06237 14.3705 2.04755 14.3976 2.03236C14.6887 1.8693 15.0549 1.6642 15.4646 1.57994ZM16.0018 4.19864C15.9998 4.19961 15.9976 4.20063 15.9954 4.20169C15.9185 4.23881 15.8153 4.29552 15.6133 4.40778L6.74731 9.33332L16.0018 14.4747L25.2562 9.33329L16.3903 4.40778C16.1883 4.29552 16.0851 4.23881 16.0082 4.20169C16.006 4.20063 16.0038 4.19961 16.0018 4.19864ZM26.6685 11.5993V21.4114C26.6685 21.6554 26.6679 21.7802 26.6625 21.8707C26.6623 21.8733 26.6621 21.8759 26.662 21.8783C26.6599 21.8796 26.6578 21.881 26.6555 21.8824C26.5791 21.9311 26.4702 21.9922 26.257 22.1107L17.3351 27.0673L17.3351 16.7845L26.6685 11.5993ZM14.6684 16.7845L5.33513 11.5993V21.4114C5.33513 21.6554 5.33568 21.7802 5.34113 21.8707C5.34129 21.8733 5.34145 21.8759 5.34161 21.8783C5.34366 21.8796 5.34581 21.881 5.34806 21.8824C5.42446 21.9311 5.53334 21.9922 5.74661 22.1107L14.6685 27.0673L14.6684 16.7845Z" fill="black"/>
</svg>
