<svg width="24" height="25" viewBox="0 0 24 25" fill="none" xmlns="http://www.w3.org/2000/svg">
<path d="M8.8 13.1C8.8 13.1 10 14.7 12 14.7C14 14.7 15.2 13.1 15.2 13.1M14.4 9.1H14.408M8.8 9.1H10.4M20 11.5C20 15.9183 16.4183 19.5 12 19.5C7.58172 19.5 4 15.9183 4 11.5C4 7.08172 7.58172 3.5 12 3.5C16.4183 3.5 20 7.08172 20 11.5ZM14.8 9.1C14.8 9.32091 14.6209 9.5 14.4 9.5C14.1791 9.5 14 9.32091 14 9.1C14 8.87909 14.1791 8.7 14.4 8.7C14.6209 8.7 14.8 8.87909 14.8 9.1Z" stroke="black" stroke-width="2" stroke-linecap="round" stroke-linejoin="round"/>
</svg>
