<svg width="32" height="32" viewBox="0 0 32 32" fill="none" xmlns="http://www.w3.org/2000/svg">
<path fill-rule="evenodd" clip-rule="evenodd" d="M15.9987 4.00004C9.37128 4.00004 3.9987 9.37262 3.9987 16C3.9987 22.6275 9.37128 28 15.9987 28C22.6261 28 27.9987 22.6275 27.9987 16C27.9987 9.37262 22.6261 4.00004 15.9987 4.00004ZM1.33203 16C1.33203 7.89986 7.89852 1.33337 15.9987 1.33337C24.0989 1.33337 30.6654 7.89986 30.6654 16C30.6654 24.1002 24.0989 30.6667 15.9987 30.6667C7.89852 30.6667 1.33203 24.1002 1.33203 16ZM14.6654 10.6667C14.6654 9.93033 15.2623 9.33337 15.9987 9.33337H16.012C16.7484 9.33337 17.3454 9.93033 17.3454 10.6667C17.3454 11.4031 16.7484 12 16.012 12H15.9987C15.2623 12 14.6654 11.4031 14.6654 10.6667ZM15.9987 14.6667C16.7351 14.6667 17.332 15.2637 17.332 16V21.3334C17.332 22.0698 16.7351 22.6667 15.9987 22.6667C15.2623 22.6667 14.6654 22.0698 14.6654 21.3334V16C14.6654 15.2637 15.2623 14.6667 15.9987 14.6667Z" fill="black"/>
</svg>
