<svg width="24" height="24" viewBox="0 0 24 24" fill="none" xmlns="http://www.w3.org/2000/svg">
<path fill-rule="evenodd" clip-rule="evenodd" d="M17.9717 4.18194C16.9954 3.20563 15.4125 3.20563 14.4362 4.18194L5.42058 13.1976C3.76085 14.8573 3.76085 17.5482 5.42058 19.208C7.08031 20.8677 9.77126 20.8677 11.431 19.208L20.4466 10.1923C20.8371 9.80182 21.4703 9.80182 21.8608 10.1923C22.2513 10.5829 22.2513 11.216 21.8608 11.6066L12.8452 20.6222C10.4044 23.0629 6.44714 23.063 4.00636 20.6222C1.56559 18.1814 1.56559 14.2241 4.00636 11.7833L13.022 2.76773C14.7793 1.01037 17.6286 1.01037 19.3859 2.76773C21.1433 4.52509 21.1433 7.37433 19.3859 9.13169L10.7239 17.7937C9.64994 18.8677 7.90873 18.8677 6.83479 17.7937C5.76085 16.7198 5.76085 14.9786 6.83479 13.9047L14.4362 6.30326C14.8267 5.91274 15.4599 5.91274 15.8504 6.30326C16.2409 6.69378 16.2409 7.32695 15.8504 7.71747L8.249 15.3189C7.95611 15.6118 7.95611 16.0866 8.249 16.3795C8.5419 16.6724 9.01677 16.6724 9.30966 16.3795L17.9717 7.71747C18.948 6.74116 18.948 5.15825 17.9717 4.18194Z" fill="#FF4D42"/>
</svg>
