<svg width="32" height="32" viewBox="0 0 32 32" fill="none" xmlns="http://www.w3.org/2000/svg">
<path fill-rule="evenodd" clip-rule="evenodd" d="M10.8806 1.33338H21.1168C21.8196 1.33335 22.426 1.33333 22.9254 1.37414C23.4525 1.4172 23.9768 1.51229 24.4813 1.76935C25.234 2.15284 25.8459 2.76477 26.2294 3.51741C26.4865 4.02192 26.5815 4.54621 26.6246 5.07334C26.6654 5.57278 26.6654 6.17914 26.6654 6.88201V25.1181C26.6654 25.821 26.6654 26.4273 26.6246 26.9267C26.5815 27.4539 26.4865 27.9782 26.2294 28.4827C25.8459 29.2353 25.234 29.8472 24.4813 30.2307C23.9768 30.4878 23.4525 30.5829 22.9254 30.626C22.426 30.6668 21.8196 30.6667 21.1168 30.6667H10.8806C10.1778 30.6667 9.57142 30.6668 9.072 30.626C8.54487 30.5829 8.02058 30.4878 7.51607 30.2307C6.76342 29.8472 6.1515 29.2353 5.76801 28.4827C5.51095 27.9782 5.41586 27.4539 5.37279 26.9267C5.33199 26.4273 5.33201 25.821 5.33203 25.1181V6.88198C5.33201 6.17912 5.33199 5.57277 5.37279 5.07334C5.41586 4.54621 5.51095 4.02192 5.76801 3.51741C6.1515 2.76477 6.76342 2.15284 7.51607 1.76935C8.02058 1.51229 8.54487 1.4172 9.072 1.37414C9.57143 1.33333 10.1778 1.33335 10.8806 1.33338ZM9.28915 4.03195C8.92693 4.06154 8.79264 4.11178 8.72671 4.14537C8.47583 4.2732 8.27186 4.47717 8.14403 4.72806C8.11043 4.79398 8.0602 4.92827 8.0306 5.29049C7.99974 5.66827 7.9987 6.16464 7.9987 6.93338V25.0667C7.9987 25.8354 7.99974 26.3318 8.0306 26.7096C8.0602 27.0718 8.11043 27.2061 8.14403 27.272C8.27186 27.5229 8.47583 27.7269 8.72671 27.8547C8.79264 27.8883 8.92693 27.9385 9.28915 27.9681C9.66693 27.999 10.1633 28 10.932 28H21.0654C21.8341 28 22.3305 27.999 22.7083 27.9681C23.0705 27.9385 23.2048 27.8883 23.2707 27.8547C23.5216 27.7269 23.7255 27.5229 23.8534 27.272C23.887 27.2061 23.9372 27.0718 23.9668 26.7096C23.9977 26.3318 23.9987 25.8354 23.9987 25.0667V6.93338C23.9987 6.16464 23.9977 5.66827 23.9668 5.29049C23.9372 4.92827 23.887 4.79398 23.8534 4.72806C23.7255 4.47717 23.5216 4.2732 23.2707 4.14537C23.2048 4.11178 23.0705 4.06154 22.7083 4.03195C22.3305 4.00108 21.8341 4.00004 21.0654 4.00004H10.932C10.1633 4.00004 9.66693 4.00108 9.28915 4.03195ZM13.9987 23.3334C13.9987 22.2288 14.8941 21.3334 15.9987 21.3334C17.1033 21.3334 17.9987 22.2288 17.9987 23.3334C17.9987 24.4379 17.1033 25.3334 15.9987 25.3334C14.8941 25.3334 13.9987 24.4379 13.9987 23.3334Z" fill="black"/>
</svg>
