<svg width="32" height="32" viewBox="0 0 32 32" fill="none" xmlns="http://www.w3.org/2000/svg">
<path fill-rule="evenodd" clip-rule="evenodd" d="M10.3462 2.66663L13.3346 2.66663C14.071 2.66663 14.668 3.26358 14.668 3.99996C14.668 4.73634 14.071 5.33329 13.3346 5.33329H10.4013C9.2592 5.33329 8.48281 5.33433 7.88269 5.38336C7.29813 5.43112 6.9992 5.51769 6.79066 5.62394C6.2889 5.87961 5.88095 6.28755 5.62529 6.78932C5.51903 6.99785 5.43247 7.29679 5.38471 7.88134C5.33567 8.48146 5.33464 9.25785 5.33464 10.4V21.6C5.33464 22.7421 5.33567 23.5185 5.38471 24.1186C5.43247 24.7031 5.51903 25.0021 5.62529 25.2106C5.88095 25.7124 6.2889 26.1203 6.79066 26.376C6.9992 26.4822 7.29813 26.5688 7.88269 26.6166C8.48281 26.6656 9.2592 26.6666 10.4013 26.6666H21.6013C22.7434 26.6666 23.5198 26.6656 24.1199 26.6166C24.7045 26.5688 25.0034 26.4822 25.2119 26.376C25.7137 26.1203 26.1217 25.7124 26.3773 25.2106C26.4836 25.0021 26.5701 24.7031 26.6179 24.1186C26.6669 23.5185 26.668 22.7421 26.668 21.6V18.6666C26.668 17.9302 27.2649 17.3333 28.0013 17.3333C28.7377 17.3333 29.3346 17.9302 29.3346 18.6666V21.6551C29.3347 22.7283 29.3347 23.6141 29.2757 24.3357C29.2145 25.0852 29.0831 25.7741 28.7533 26.4212C28.242 27.4248 27.4261 28.2407 26.4226 28.752C25.7755 29.0817 25.0865 29.2131 24.3371 29.2744C23.6155 29.3333 22.7297 29.3333 21.6564 29.3333H10.3462C9.27293 29.3333 8.38712 29.3333 7.66554 29.2744C6.91607 29.2131 6.22713 29.0817 5.58002 28.752C4.57649 28.2407 3.76059 27.4248 3.24927 26.4212C2.91955 25.7741 2.78813 25.0852 2.72689 24.3357C2.66794 23.6141 2.66795 22.7283 2.66797 21.655V10.3449C2.66795 9.2716 2.66794 8.38579 2.72689 7.66419C2.78813 6.91473 2.91955 6.22579 3.24927 5.57868C3.76059 4.57515 4.57649 3.75925 5.58002 3.24793C6.22713 2.9182 6.91607 2.78679 7.66554 2.72555C8.38713 2.6666 9.27294 2.66661 10.3462 2.66663ZM23.0585 3.05715C23.5792 2.53645 24.4234 2.53645 24.9441 3.05715L28.9441 7.05715C29.4648 7.57785 29.4648 8.42207 28.9441 8.94277L24.9441 12.9428C24.4234 13.4635 23.5792 13.4635 23.0585 12.9428C22.5378 12.4221 22.5378 11.5779 23.0585 11.0572L24.7824 9.33329H23.7346C22.5925 9.33329 21.8161 9.33433 21.216 9.38336C20.6315 9.43112 20.3325 9.51769 20.124 9.62394C19.6222 9.87961 19.2143 10.2876 18.9586 10.7893C18.8524 10.9979 18.7658 11.2968 18.718 11.8813C18.669 12.4815 18.668 13.2579 18.668 14.4V16C18.668 16.7363 18.071 17.3333 17.3346 17.3333C16.5983 17.3333 16.0013 16.7363 16.0013 16V14.3449C16.0013 13.2716 16.0013 12.3858 16.0602 11.6642C16.1215 10.9147 16.2529 10.2258 16.5826 9.57868C17.0939 8.57515 17.9098 7.75925 18.9134 7.24793C19.5605 6.9182 20.2494 6.78679 20.9989 6.72555C21.7205 6.6666 22.6063 6.66661 23.6796 6.66663L24.7824 6.66663L23.0585 4.94277C22.5378 4.42207 22.5378 3.57785 23.0585 3.05715Z" fill="black"/>
</svg>
