<svg width="32" height="32" viewBox="0 0 32 32" fill="none" xmlns="http://www.w3.org/2000/svg">
<path fill-rule="evenodd" clip-rule="evenodd" d="M16.0001 5.33329C13.4228 5.33329 11.3334 7.42263 11.3334 9.99996C11.3334 12.5773 13.4228 14.6666 16.0001 14.6666C18.5774 14.6666 20.6668 12.5773 20.6668 9.99996C20.6668 7.42263 18.5774 5.33329 16.0001 5.33329ZM8.66678 9.99996C8.66678 5.94987 11.95 2.66663 16.0001 2.66663C20.0502 2.66663 23.3334 5.94987 23.3334 9.99996C23.3334 14.05 20.0502 17.3333 16.0001 17.3333C11.95 17.3333 8.66678 14.05 8.66678 9.99996ZM12.4351 19.3332C12.5112 19.3333 12.5884 19.3333 12.6668 19.3333H19.3334C19.4118 19.3333 19.489 19.3333 19.5651 19.3332C21.2015 19.3326 22.3188 19.3322 23.2687 19.6204C25.3994 20.2667 27.0667 21.934 27.713 24.0647C28.0012 25.0146 28.0008 26.1319 28.0002 27.7683C28.0001 27.8444 28.0001 27.9216 28.0001 28C28.0001 28.7363 27.4032 29.3333 26.6668 29.3333C25.9304 29.3333 25.3334 28.7363 25.3334 28C25.3334 26.0422 25.319 25.3589 25.1612 24.8388C24.7734 23.5604 23.773 22.56 22.4946 22.1722C21.9745 22.0144 21.2912 22 19.3334 22H12.6668C10.709 22 10.0257 22.0144 9.50564 22.1722C8.22723 22.56 7.22682 23.5604 6.83902 24.8388C6.68125 25.3589 6.66678 26.0422 6.66678 28C6.66678 28.7363 6.06982 29.3333 5.33344 29.3333C4.59706 29.3333 4.00011 28.7363 4.00011 28C4.00011 27.9216 4.00008 27.8444 4.00005 27.7683C3.99945 26.1319 3.99904 25.0146 4.28718 24.0647C4.93351 21.934 6.60087 20.2667 8.73154 19.6204C9.68141 19.3322 10.7988 19.3326 12.4351 19.3332Z" fill="black"/>
</svg>
